<svg viewBox="0 0 200 200" xmlns="http://www.w3.org/2000/svg" >
  <path fill="rgba(245, 101, 101, 0.1)" d="M15.9,-28.6C22.6,-17,31.6,-15.1,42.1,-7.8C52.6,-0.5,64.7,12.3,62.1,20.1C59.4,27.9,42,30.9,29.2,33.6C16.4,36.4,8.2,39,-0.6,39.8C-9.3,40.5,-18.6,39.5,-25.6,34.9C-32.6,30.2,-37.2,21.9,-46.3,11C-55.3,0.2,-68.8,-13.3,-70.6,-27.7C-72.5,-42.1,-62.7,-57.5,-49,-66.9C-35.3,-76.2,-17.7,-79.6,-6.5,-70.6C4.6,-61.6,9.1,-40.2,15.9,-28.6Z" transform="translate(100 100)" />
  <path fill="rgba(21, 132, 125, 0.1)" d="M46.7,-45.4C61.4,-32,74.8,-16,74.4,-0.3C74.1,15.3,60,30.6,45.3,46.7C30.6,62.8,15.3,79.7,-4,83.7C-23.3,87.7,-46.6,78.8,-58.5,62.7C-70.3,46.6,-70.7,23.3,-66.7,4C-62.7,-15.3,-54.4,-30.7,-42.5,-44.1C-30.7,-57.5,-15.3,-69,0.3,-69.3C16,-69.7,32,-58.8,46.7,-45.4Z" transform="translate(200 100)" />
</svg>
