<svg width="715" height="520" viewBox="0 0 715 520" fill="none" xmlns="http://www.w3.org/2000/svg">
<path d="M66.9 439.6C88.2 439.6 103.8 429.7 117 414.7H118.2L121.5 436H157.5V287.2H113.4V385C103.2 398.2 95.4 402.1 84.3 402.1C67.8 402.1 62.7 393.1 62.7 373.3V287.2H18.6V379C18.6 416.5 33 439.6 66.9 439.6ZM262.983 499.3C316.983 499.3 351.483 476.8 351.483 445.6C351.483 418.9 330.183 408.1 291.183 408.1H263.583C246.183 408.1 238.383 404.8 238.383 397C238.383 391.9 240.483 389.2 244.983 385.9C252.483 388 259.383 388.9 265.383 388.9C299.883 388.9 326.883 373.3 326.883 339.1C326.883 331.6 323.583 324.1 320.283 319.6H350.283V287.2H289.983C282.783 284.8 274.383 283.6 265.383 283.6C231.783 283.6 201.783 301.9 201.783 337.6C201.783 355 210.483 368.5 221.283 375.7V376.9C210.783 384.1 203.583 394.9 203.583 404.8C203.583 417.4 210.183 425.2 218.583 430.3V431.5C203.283 439 195.483 449.2 195.483 461.2C195.483 487.9 224.283 499.3 262.983 499.3ZM265.383 362.2C253.083 362.2 243.183 353.8 243.183 337.6C243.183 322 253.083 313.3 265.383 313.3C277.683 313.3 287.883 322 287.883 337.6C287.883 353.8 277.683 362.2 265.383 362.2ZM269.283 471.4C245.883 471.4 231.483 465.7 231.483 454.6C231.483 449.2 234.483 444.7 241.983 439.9C247.383 441.4 253.983 442 264.783 442H283.383C300.483 442 309.483 443.8 309.483 453.4C309.483 463.6 292.983 471.4 269.283 471.4ZM426.666 439.6C447.966 439.6 463.566 429.7 476.766 414.7H477.966L481.266 436H517.266V287.2H473.166V385C462.966 398.2 455.166 402.1 444.066 402.1C427.566 402.1 422.466 393.1 422.466 373.3V287.2H378.366V379C378.366 416.5 392.766 439.6 426.666 439.6Z" fill="#111111"/>
<path d="M555 444.4H597.1V367C609.7 340.3 632.7 328 651 328C662.1 328 666.7 328.8 676 331.5L682.6 298C673.9 294.1 668.7 298 655.5 298C631.8 298 608.2 303.7 593.5 328H592.6V295.6H555V444.4Z" fill="#111111"/>
<path d="M572.5 314C585.479 314 596 303.479 596 290.5C596 277.521 585.479 267 572.5 267C559.521 267 549 277.521 549 290.5C549 303.479 559.521 314 572.5 314Z" fill="white" stroke="#111111" stroke-width="13"/>
<path d="M684.5 339C697.479 339 708 328.479 708 315.5C708 302.521 697.479 292 684.5 292C671.521 292 661 302.521 661 315.5C661 328.479 671.521 339 684.5 339Z" fill="white" stroke="#111111" stroke-width="13"/>
<path d="M572.5 456C585.479 456 596 445.479 596 432.5C596 419.521 585.479 409 572.5 409C559.521 409 549 419.521 549 432.5C549 445.479 559.521 456 572.5 456Z" fill="#4BEBCE" stroke="#111111" stroke-width="13"/>
<path d="M76.8 228.6C91.8 228.6 107.1 220.5 118.2 209.7H119.1L122.4 225H158.4V14.7H114.3V65.4L116.4 88.5H115.2C105.3 78.3 94.2 72.6 77.7 72.6C45.3 72.6 14.1 102 14.1 150.6C14.1 199.2 39 228.6 76.8 228.6ZM88.2 192.6C69.9 192.6 59.4 179.4 59.4 150C59.4 121.8 73.2 108.6 89.4 108.6C98.1 108.6 106.2 111.3 114.3 118.5V178.8C106.5 188.7 98.1 192.6 88.2 192.6ZM278.883 228.6C298.683 228.6 320.883 222 337.983 211.2L323.283 184.5C310.083 191.4 298.383 195 284.883 195C260.583 195 244.683 185.4 240.483 163.8H341.883C342.483 160.2 343.983 152.1 343.983 144C343.983 103.5 319.683 72.6 273.783 72.6C233.883 72.6 196.383 101.7 196.383 150.6C196.383 200.1 232.383 228.6 278.883 228.6ZM275.283 106.2C292.383 106.2 302.583 115.8 304.683 134.1H241.083C245.583 115.5 257.883 106.2 275.283 106.2Z" fill="#111111"/>
<path d="M385.428 169.081L402.35 216.873L560.841 218.676L546.722 178.802L472.738 180.175C456.996 180.657 441.272 182.087 425.064 183.052L424.664 181.921C437.867 172.472 450.888 163.406 463.425 153.875L521.789 108.385L506.969 66.5317L385.428 169.081Z" fill="#111111"/>
<path d="M521.593 108.169L547.093 179.169L419.593 184.169L521.593 108.169Z" fill="#4BEBCE"/>
</svg>
